# xmcd
#
# Track frame offsets:
#	150
#	15995
#	36677
#	53545
#	67252
#	81080
#	96317
#	113153
#	124402
#	139295
#	155400
#	168301
#	180661
#	194176
#	209275
#
# Disc length: 3002 seconds
#
# Revision: 0
# Processed by: cddbd v1.5.2PL0 Copyright (c) Steve Scherf et al.
# Submitted via: EasyCDDAExtractor 16.0.6.1
#
DISCID=de0bb80f
DTITLE=Καζαντζίδης Στέλιος - Καζαντζίδης Στέλιος 4
DYEAR=2009
DGENRE=Λαϊκή
TTITLE0=Καζαντζίδης Στέλιος - Βραδιάζει [Χ. Νικολόπουλος-Σ. Τσώτου]
TTITLE1=Καζαντζίδης Στέλιος - Σαν απόκληρος γυρίζω [Βασίλης Τσιτσάνης]
TTITLE2=Καζαντζίδης Στέλιος - Θα φύγω [Χ. Νικολόπουλος-Σ. Τσώτου]
TTITLE3=Καζαντζίδης Στέλιος - Ο καψούρης [Γιάννης Παπαϊωάννου]
TTITLE4=Καζαντζίδης Στέλιος - Σήμερα [Τ. Σούκας-Πέρσα Σούκα]
TTITLE5=Καζαντζίδης Στέλιος - Η φωτιά [Βασίλης Τσιτσάνης]
TTITLE6=Καζαντζίδης Στέλιος - Ο μεγάλος καμηλιέρης [Τ. Σούκας-Σ. Τσώτου]
TTITLE7=Καζαντζίδης Στέλιος - Όπου άνθρωπος κακία [Σ. Τζουανάκος-Κ. Κοφινιώτης
TTITLE7=]
TTITLE8=Καζαντζίδης Στέλιος - Τα βιώματά μου [Θ. Πολυκανδριώτης-Γ. Γιαννόπουλο
TTITLE8=ς]
TTITLE9=Καζαντζίδης Στέλιος - Εγώ και ο καϋμός [Χ. Νικολόπουλος-Σ. Τσώτου]
TTITLE10=Καζαντζίδης Στέλιος - Ποιος θα με πληροφορήσει [Α.Καλδάρας-Ε.Παπαγιαν
TTITLE10=νοπούλου]
TTITLE11=Καζαντζίδης Στέλιος-Μαρινέλλα - Βρε, σαν τα χιόνια [Χ. Κολοκοτρώνης-Μ
TTITLE11=Χιώτης]
TTITLE12=Καζαντζίδης Στέλιος - Ουΐσκι, τζιν και φρούμελ [Β. Καραπατάκης-Χ. Κολ
TTITLE12=οκοτρώνης]
TTITLE13=Καζαντζίδης Στέλιος - Τσιαμπασίν [παραδ., διασκ. Στάθης Καζαντζίδης]
TTITLE14=Καζαντζίδης Στέλιος - Έρθαν οι εμπόρ [παραδ., διασκ. Στάθης Καζαντζίδ
TTITLE14=ης]
EXTD=
EXTT0=
EXTT1=
EXTT2=
EXTT3=
EXTT4=
EXTT5=
EXTT6=
EXTT7=
EXTT8=
EXTT9=
EXTT10=
EXTT11=
EXTT12=
EXTT13=
EXTT14=
PLAYORDER=
